<?xml version="1.0" encoding="UTF-8" standalone="no"?>
<!DOCTYPE svg PUBLIC "-//W3C//DTD SVG 1.1//EN"
 "http://www.w3.org/Graphics/SVG/1.1/DTD/svg11.dtd">
<!-- Generated by graphviz version 2.26.3 (20100126.1600)
 -->
<!-- Title: _anonymous_0 Pages: 1 -->
<svg width="329pt" height="361pt"
 viewBox="0.00 0.00 329.50 361.00" xmlns="http://www.w3.org/2000/svg" xmlns:xlink="http://www.w3.org/1999/xlink">
<g id="graph1" class="graph" transform="scale(1 1) rotate(0) translate(4 357)">
<title>_anonymous_0</title>
<polygon fill="white" stroke="white" points="-4,5 -4,-357 326.5,-357 326.5,5 -4,5"/>
<text text-anchor="middle" x="160.75" y="-9.4" font-family="Times Roman,serif" font-size="14.00">Grafico calculo de impacto</text>
<!-- item30195 : 5 -->
<g id="node1" class="node"><title>item30195 : 5</title>
<a xlink:href="/miproyecto/fase/item/ver/1" xlink:title="item30195 : 5">
<ellipse fill="#008ee8" stroke="black" cx="82.5" cy="-333.5" rx="81" ry="18.5"/>
<text text-anchor="middle" x="82.5" y="-329.9" font-family="Times Roman,serif" font-size="14.00">item30195 : 5</text>
</a>
</g>
<!-- item30196 : 6 -->
<g id="node2" class="node"><title>item30196 : 6</title>
<a xlink:href="/miproyecto/fase/item/ver/2" xlink:title="item30196 : 6">
<ellipse fill="white" stroke="black" cx="82.5" cy="-189.5" rx="81" ry="18.5"/>
<text text-anchor="middle" x="82.5" y="-185.9" font-family="Times Roman,serif" font-size="14.00">item30196 : 6</text>
</a>
</g>
<!-- item30195 : 5&#45;&gt;item30196 : 6 -->
<g id="edge2" class="edge"><title>item30195 : 5&#45;&gt;item30196 : 6</title>
<a xlink:href="/">
<path fill="none" stroke="#8dad48" d="M82.5,-314.97C82.5,-290.59 82.5,-247.46 82.5,-218.68"/>
<polygon fill="#8dad48" stroke="#8dad48" points="86.0001,-218.42 82.5,-208.42 79.0001,-218.42 86.0001,-218.42"/>
</a>
</g>
<!-- item301915 : 10 -->
<g id="node4" class="node"><title>item301915 : 10</title>
<a xlink:href="/miproyecto/fase/item/ver/11" xlink:title="item301915 : 10">
<ellipse fill="white" stroke="black" cx="226.5" cy="-333.5" rx="94" ry="18.5"/>
<text text-anchor="middle" x="226.5" y="-329.9" font-family="Times Roman,serif" font-size="14.00">item301915 : 10</text>
</a>
</g>
<!-- item30195 : 5&#45;&gt;item301915 : 10 -->
<g id="edge4" class="edge"><title>item30195 : 5&#45;&gt;item301915 : 10</title>
<a xlink:href="/">
<path fill="none" stroke="#8dad48" d="M163.76,-333.5C163.82,-333.5 163.89,-333.5 163.95,-333.5"/>
<polygon fill="#8dad48" stroke="#8dad48" points="154.142,-337.005 164.14,-333.5 154.138,-330.005 154.142,-337.005"/>
</a>
</g>
<!-- item30199 : 3 -->
<g id="node6" class="node"><title>item30199 : 3</title>
<a xlink:href="/miproyecto/fase/item/ver/5" xlink:title="item30199 : 3">
<ellipse fill="white" stroke="black" cx="82.5" cy="-45.5" rx="81" ry="18.5"/>
<text text-anchor="middle" x="82.5" y="-41.9" font-family="Times Roman,serif" font-size="14.00">item30199 : 3</text>
</a>
</g>
<!-- item30196 : 6&#45;&gt;item30199 : 3 -->
<g id="edge6" class="edge"><title>item30196 : 6&#45;&gt;item30199 : 3</title>
<a xlink:href="/">
<path fill="none" stroke="#8dad48" d="M82.5,-170.97C82.5,-146.59 82.5,-103.46 82.5,-74.677"/>
<polygon fill="#8dad48" stroke="#8dad48" points="86.0001,-74.417 82.5,-64.417 79.0001,-74.417 86.0001,-74.417"/>
</a>
</g>
<!-- item30199 : 3&#45;&gt;item301915 : 10 -->
<g id="edge8" class="edge"><title>item30199 : 3&#45;&gt;item301915 : 10</title>
<a xlink:href="/">
<path fill="none" stroke="#8dad48" d="M91.727,-63.954C116.31,-113.11 183.47,-247.45 212.66,-305.81"/>
<polygon fill="#8dad48" stroke="#8dad48" points="209.564,-307.444 217.16,-314.83 215.828,-304.319 209.564,-307.444"/>
</a>
</g>
</g>
</svg>
