<?xml version="1.0" encoding="UTF-8" standalone="no"?>
<!DOCTYPE svg PUBLIC "-//W3C//DTD SVG 1.1//EN"
 "http://www.w3.org/Graphics/SVG/1.1/DTD/svg11.dtd">
<!-- Generated by graphviz version 2.26.3 (20100126.1600)
 -->
<!-- Title: _anonymous_0 Pages: 1 -->
<svg width="235pt" height="217pt"
 viewBox="0.00 0.00 235.00 217.00" xmlns="http://www.w3.org/2000/svg" xmlns:xlink="http://www.w3.org/1999/xlink">
<g id="graph1" class="graph" transform="scale(1 1) rotate(0) translate(4 213)">
<title>_anonymous_0</title>
<polygon fill="white" stroke="white" points="-4,5 -4,-213 232,-213 232,5 -4,5"/>
<text text-anchor="middle" x="113.5" y="-9.4" font-family="Times Roman,serif" font-size="14.00">Impacto : 7</text>
<!-- 18 : 3 -->
<g id="node1" class="node"><title>18 : 3</title>
<a xlink:href="/miproyecto/fase/item/ver/18" xlink:title="18 : 3">
<ellipse fill="white" stroke="black" cx="41.5" cy="-189.5" rx="40.0571" ry="18.5"/>
<text text-anchor="middle" x="41.5" y="-185.9" font-family="Times Roman,serif" font-size="14.00">18 : 3</text>
</a>
</g>
<!-- 19 : 3 -->
<g id="node2" class="node"><title>19 : 3</title>
<a xlink:href="/miproyecto/fase/item/ver/19" xlink:title="19 : 3">
<ellipse fill="white" stroke="black" cx="185.5" cy="-189.5" rx="40.0571" ry="18.5"/>
<text text-anchor="middle" x="185.5" y="-185.9" font-family="Times Roman,serif" font-size="14.00">19 : 3</text>
</a>
</g>
<!-- 18 : 3&#45;&gt;19 : 3 -->
<g id="edge2" class="edge"><title>18 : 3&#45;&gt;19 : 3</title>
<a xlink:href="/">
<path fill="none" stroke="#8dad48" d="M81.612,-189.5C98.238,-189.5 117.71,-189.5 135.27,-189.5"/>
<polygon fill="#8dad48" stroke="#8dad48" points="135.35,-193 145.35,-189.5 135.35,-186 135.35,-193"/>
</a>
</g>
<!-- 21 : 1 -->
<g id="node4" class="node"><title>21 : 1</title>
<a xlink:href="/miproyecto/fase/item/ver/21" xlink:title="21 : 1">
<ellipse fill="#008ee8" stroke="black" cx="185.5" cy="-45.5" rx="40.0571" ry="18.5"/>
<text text-anchor="middle" x="185.5" y="-41.9" font-family="Times Roman,serif" font-size="14.00">21 : 1</text>
</a>
</g>
<!-- 19 : 3&#45;&gt;21 : 1 -->
<g id="edge4" class="edge"><title>19 : 3&#45;&gt;21 : 1</title>
<a xlink:href="/">
<path fill="none" stroke="#8dad48" d="M185.5,-170.97C185.5,-146.59 185.5,-103.46 185.5,-74.677"/>
<polygon fill="#8dad48" stroke="#8dad48" points="189,-74.417 185.5,-64.417 182,-74.417 189,-74.417"/>
</a>
</g>
</g>
</svg>
