<?xml version="1.0" encoding="UTF-8" standalone="no"?>
<!DOCTYPE svg PUBLIC "-//W3C//DTD SVG 1.1//EN"
 "http://www.w3.org/Graphics/SVG/1.1/DTD/svg11.dtd">
<!-- Generated by graphviz version 2.26.3 (20100126.1600)
 -->
<!-- Title: _anonymous_0 Pages: 1 -->
<svg width="235pt" height="361pt"
 viewBox="0.00 0.00 235.00 361.00" xmlns="http://www.w3.org/2000/svg" xmlns:xlink="http://www.w3.org/1999/xlink">
<g id="graph1" class="graph" transform="scale(1 1) rotate(0) translate(4 357)">
<title>_anonymous_0</title>
<polygon fill="white" stroke="white" points="-4,5 -4,-357 232,-357 232,5 -4,5"/>
<text text-anchor="middle" x="113.5" y="-9.4" font-family="Times Roman,serif" font-size="14.00">Impacto : 22</text>
<!-- 8 : 8 -->
<g id="node1" class="node"><title>8 : 8</title>
<a xlink:href="/miproyecto/fase/item/ver/8" xlink:title="8 : 8">
<ellipse fill="white" stroke="black" cx="41.5" cy="-333.5" rx="34" ry="18.5"/>
<text text-anchor="middle" x="41.5" y="-329.9" font-family="Times Roman,serif" font-size="14.00">8 : 8</text>
</a>
</g>
<!-- 16 : 1 -->
<g id="node2" class="node"><title>16 : 1</title>
<a xlink:href="/miproyecto/fase/item/ver/16" xlink:title="16 : 1">
<ellipse fill="white" stroke="black" cx="41.5" cy="-189.5" rx="40.0571" ry="18.5"/>
<text text-anchor="middle" x="41.5" y="-185.9" font-family="Times Roman,serif" font-size="14.00">16 : 1</text>
</a>
</g>
<!-- 8 : 8&#45;&gt;16 : 1 -->
<g id="edge2" class="edge"><title>8 : 8&#45;&gt;16 : 1</title>
<a xlink:href="/">
<path fill="none" stroke="#8dad48" d="M41.5,-314.97C41.5,-290.59 41.5,-247.46 41.5,-218.68"/>
<polygon fill="#8dad48" stroke="#8dad48" points="45.0001,-218.42 41.5,-208.42 38.0001,-218.42 45.0001,-218.42"/>
</a>
</g>
<!-- 5 : 6 -->
<g id="node4" class="node"><title>5 : 6</title>
<a xlink:href="/miproyecto/fase/item/ver/5" xlink:title="5 : 6">
<ellipse fill="#008ee8" stroke="black" cx="41.5" cy="-45.5" rx="34" ry="18.5"/>
<text text-anchor="middle" x="41.5" y="-41.9" font-family="Times Roman,serif" font-size="14.00">5 : 6</text>
</a>
</g>
<!-- 16 : 1&#45;&gt;5 : 6 -->
<g id="edge4" class="edge"><title>16 : 1&#45;&gt;5 : 6</title>
<a xlink:href="/">
<path fill="none" stroke="#8dad48" d="M41.5,-170.97C41.5,-146.59 41.5,-103.46 41.5,-74.677"/>
<polygon fill="#8dad48" stroke="#8dad48" points="45.0001,-74.417 41.5,-64.417 38.0001,-74.417 45.0001,-74.417"/>
</a>
</g>
<!-- 11 : 7 -->
<g id="node6" class="node"><title>11 : 7</title>
<a xlink:href="/miproyecto/fase/item/ver/11" xlink:title="11 : 7">
<ellipse fill="white" stroke="black" cx="185.5" cy="-333.5" rx="40.0571" ry="18.5"/>
<text text-anchor="middle" x="185.5" y="-329.9" font-family="Times Roman,serif" font-size="14.00">11 : 7</text>
</a>
</g>
<!-- 5 : 6&#45;&gt;11 : 7 -->
<g id="edge6" class="edge"><title>5 : 6&#45;&gt;11 : 7</title>
<a xlink:href="/">
<path fill="none" stroke="#8dad48" d="M50.508,-63.516C74.946,-112.39 142.62,-247.73 171.81,-306.11"/>
<polygon fill="#8dad48" stroke="#8dad48" points="168.711,-307.738 176.31,-315.12 174.973,-304.61 168.711,-307.738"/>
</a>
</g>
</g>
</svg>
