<?xml version="1.0" encoding="UTF-8" standalone="no"?>
<!DOCTYPE svg PUBLIC "-//W3C//DTD SVG 1.1//EN"
 "http://www.w3.org/Graphics/SVG/1.1/DTD/svg11.dtd">
<!-- Generated by graphviz version 2.26.3 (20100126.1600)
 -->
<!-- Title: _anonymous_0 Pages: 1 -->
<svg width="272pt" height="361pt"
 viewBox="0.00 0.00 272.00 361.00" xmlns="http://www.w3.org/2000/svg" xmlns:xlink="http://www.w3.org/1999/xlink">
<g id="graph1" class="graph" transform="scale(1 1) rotate(0) translate(4 357)">
<title>_anonymous_0</title>
<polygon fill="white" stroke="white" points="-4,5 -4,-357 269,-357 269,5 -4,5"/>
<text text-anchor="middle" x="132" y="-9.4" font-family="Times Roman,serif" font-size="14.00">Grafico calculo de impacto</text>
<!-- cod_0 : 6 -->
<g id="node1" class="node"><title>cod_0 : 6</title>
<a xlink:href="/miproyecto/fase/item/ver/1" xlink:title="cod_0 : 6">
<ellipse fill="#008ee8" stroke="black" cx="57" cy="-333.5" rx="56" ry="18.5"/>
<text text-anchor="middle" x="57" y="-329.9" font-family="Times Roman,serif" font-size="14.00">cod_0 : 6</text>
</a>
</g>
<!-- cod_1 : 2 -->
<g id="node2" class="node"><title>cod_1 : 2</title>
<a xlink:href="/miproyecto/fase/item/ver/2" xlink:title="cod_1 : 2">
<ellipse fill="white" stroke="black" cx="57" cy="-189.5" rx="56" ry="18.5"/>
<text text-anchor="middle" x="57" y="-185.9" font-family="Times Roman,serif" font-size="14.00">cod_1 : 2</text>
</a>
</g>
<!-- cod_0 : 6&#45;&gt;cod_1 : 2 -->
<g id="edge2" class="edge"><title>cod_0 : 6&#45;&gt;cod_1 : 2</title>
<a xlink:href="/">
<path fill="none" stroke="#8dad48" d="M57,-314.97C57,-290.59 57,-247.46 57,-218.68"/>
<polygon fill="#8dad48" stroke="#8dad48" points="60.5001,-218.42 57,-208.42 53.5001,-218.42 60.5001,-218.42"/>
</a>
</g>
<!-- cod_10 : 5 -->
<g id="node4" class="node"><title>cod_10 : 5</title>
<a xlink:href="/miproyecto/fase/item/ver/11" xlink:title="cod_10 : 5">
<ellipse fill="white" stroke="black" cx="201" cy="-333.5" rx="62" ry="18.5"/>
<text text-anchor="middle" x="201" y="-329.9" font-family="Times Roman,serif" font-size="14.00">cod_10 : 5</text>
</a>
</g>
<!-- cod_0 : 6&#45;&gt;cod_10 : 5 -->
<g id="edge4" class="edge"><title>cod_0 : 6&#45;&gt;cod_10 : 5</title>
<a xlink:href="/">
<path fill="none" stroke="#8dad48" d="M113.09,-333.5C118.19,-333.5 123.4,-333.5 128.62,-333.5"/>
<polygon fill="#8dad48" stroke="#8dad48" points="128.62,-337 138.62,-333.5 128.62,-330 128.62,-337"/>
</a>
</g>
<!-- cod_4 : 1 -->
<g id="node6" class="node"><title>cod_4 : 1</title>
<a xlink:href="/miproyecto/fase/item/ver/5" xlink:title="cod_4 : 1">
<ellipse fill="white" stroke="black" cx="57" cy="-45.5" rx="56" ry="18.5"/>
<text text-anchor="middle" x="57" y="-41.9" font-family="Times Roman,serif" font-size="14.00">cod_4 : 1</text>
</a>
</g>
<!-- cod_1 : 2&#45;&gt;cod_4 : 1 -->
<g id="edge6" class="edge"><title>cod_1 : 2&#45;&gt;cod_4 : 1</title>
<a xlink:href="/">
<path fill="none" stroke="#8dad48" d="M57,-170.97C57,-146.59 57,-103.46 57,-74.677"/>
<polygon fill="#8dad48" stroke="#8dad48" points="60.5001,-74.417 57,-64.417 53.5001,-74.417 60.5001,-74.417"/>
</a>
</g>
<!-- cod_4 : 1&#45;&gt;cod_10 : 5 -->
<g id="edge8" class="edge"><title>cod_4 : 1&#45;&gt;cod_10 : 5</title>
<a xlink:href="/">
<path fill="none" stroke="#8dad48" d="M66.227,-63.954C90.865,-113.23 158.29,-248.09 187.37,-306.23"/>
<polygon fill="#8dad48" stroke="#8dad48" points="184.251,-307.818 191.85,-315.2 190.513,-304.69 184.251,-307.818"/>
</a>
</g>
</g>
</svg>
