<?xml version="1.0" encoding="UTF-8" standalone="no"?>
<!DOCTYPE svg PUBLIC "-//W3C//DTD SVG 1.1//EN"
 "http://www.w3.org/Graphics/SVG/1.1/DTD/svg11.dtd">
<!-- Generated by graphviz version 2.26.3 (20100126.1600)
 -->
<!-- Title: graphname Pages: 1 -->
<svg width="566pt" height="194pt"
 viewBox="0.00 0.00 566.00 194.00" xmlns="http://www.w3.org/2000/svg" xmlns:xlink="http://www.w3.org/1999/xlink">
<g id="graph1" class="graph" transform="scale(1 1) rotate(0) translate(4 190)">
<title>graphname</title>
<polygon fill="white" stroke="white" points="-4,5 -4,-190 563,-190 563,5 -4,5"/>
<!-- 1 -->
<g id="node1" class="node"><title>1</title>
<ellipse fill="none" stroke="black" cx="27" cy="-167" rx="27" ry="18.3848"/>
<text text-anchor="middle" x="27" y="-163.4" font-family="Times Roman,serif" font-size="14.00">1</text>
</g>
<!-- 2 -->
<g id="node2" class="node"><title>2</title>
<ellipse fill="none" stroke="black" cx="27" cy="-93" rx="27" ry="18.3848"/>
<text text-anchor="middle" x="27" y="-89.4" font-family="Times Roman,serif" font-size="14.00">2</text>
</g>
<!-- 1&#45;&gt;2 -->
<g id="edge2" class="edge"><title>1&#45;&gt;2</title>
<path fill="none" stroke="black" d="M27,-148.327C27,-140.264 27,-130.648 27,-121.711"/>
<polygon fill="black" stroke="black" points="30.5001,-121.667 27,-111.667 23.5001,-121.667 30.5001,-121.667"/>
</g>
<!-- 5 -->
<g id="node5" class="node"><title>5</title>
<ellipse fill="none" stroke="black" cx="27" cy="-19" rx="27" ry="18.3848"/>
<text text-anchor="middle" x="27" y="-15.4" font-family="Times Roman,serif" font-size="14.00">5</text>
</g>
<!-- 2&#45;&gt;5 -->
<g id="edge4" class="edge"><title>2&#45;&gt;5</title>
<path fill="none" stroke="black" d="M27,-74.3267C27,-66.2639 27,-56.6477 27,-47.7115"/>
<polygon fill="black" stroke="black" points="30.5001,-47.6673 27,-37.6674 23.5001,-47.6674 30.5001,-47.6673"/>
</g>
<!-- 3 -->
<g id="node3" class="node"><title>3</title>
<ellipse fill="none" stroke="black" cx="99" cy="-167" rx="27" ry="18.3848"/>
<text text-anchor="middle" x="99" y="-163.4" font-family="Times Roman,serif" font-size="14.00">3</text>
</g>
<!-- 4 -->
<g id="node4" class="node"><title>4</title>
<ellipse fill="none" stroke="black" cx="171" cy="-167" rx="27" ry="18.3848"/>
<text text-anchor="middle" x="171" y="-163.4" font-family="Times Roman,serif" font-size="14.00">4</text>
</g>
<!-- 6 -->
<g id="node6" class="node"><title>6</title>
<ellipse fill="none" stroke="black" cx="243" cy="-167" rx="27" ry="18.3848"/>
<text text-anchor="middle" x="243" y="-163.4" font-family="Times Roman,serif" font-size="14.00">6</text>
</g>
<!-- 7 -->
<g id="node7" class="node"><title>7</title>
<ellipse fill="none" stroke="black" cx="315" cy="-167" rx="27" ry="18.3848"/>
<text text-anchor="middle" x="315" y="-163.4" font-family="Times Roman,serif" font-size="14.00">7</text>
</g>
<!-- 8 -->
<g id="node8" class="node"><title>8</title>
<ellipse fill="none" stroke="black" cx="387" cy="-167" rx="27" ry="18.3848"/>
<text text-anchor="middle" x="387" y="-163.4" font-family="Times Roman,serif" font-size="14.00">8</text>
</g>
<!-- 9 -->
<g id="node9" class="node"><title>9</title>
<ellipse fill="none" stroke="black" cx="459" cy="-167" rx="27" ry="18.3848"/>
<text text-anchor="middle" x="459" y="-163.4" font-family="Times Roman,serif" font-size="14.00">9</text>
</g>
<!-- 10 -->
<g id="node10" class="node"><title>10</title>
<ellipse fill="none" stroke="black" cx="531" cy="-167" rx="27" ry="18.3848"/>
<text text-anchor="middle" x="531" y="-163.4" font-family="Times Roman,serif" font-size="14.00">10</text>
</g>
</g>
</svg>
